<svg width="128" height="128" viewBox="0 0 128 128" fill="none" xmlns="http://www.w3.org/2000/svg">
  <defs>
    <!-- Metallic Gradient for Gear -->
    <linearGradient id="gearMetal" x1="16" y1="16" x2="112" y2="112" gradientUnits="userSpaceOnUse">
      <stop offset="0%" stop-color="#475569"/>
      <stop offset="25%" stop-color="#1E293B"/>
      <stop offset="50%" stop-color="#94A3B8"/>
      <stop offset="75%" stop-color="#0F172A"/>
      <stop offset="100%" stop-color="#334155"/>
    </linearGradient>
    
    <!-- Metallic Metallic Inner Ring -->
    <linearGradient id="innerShine" x1="32" y1="32" x2="96" y2="96" gradientUnits="userSpaceOnUse">
      <stop offset="0%" stop-color="#64748B"/>
      <stop offset="50%" stop-color="#0F172A"/>
      <stop offset="100%" stop-color="#475569"/>
    </linearGradient>
  </defs>

  <!-- Heavy Duty Metallic Gear Body -->
  <path d="M64 16L71 22.5L80.5 20L84.5 29L94 30L94.5 39.5L102.5 44.5L99.5 54L105 61.5L99.5 69L102.5 78.5L94.5 83.5L94 93L84.5 94L80.5 103L71 100.5L64 107L57 100.5L47.5 103L43.5 94L34 93L33.5 83.5L25.5 78.5L28.5 69L23 61.5L28.5 54L25.5 44.5L33.5 39.5L34 30L43.5 29L47.5 20L57 22.5L64 16Z" fill="url(#gearMetal)" stroke="#0F172A" stroke-width="2.5" stroke-linejoin="round"/>
  
  <!-- Inner Metallic Ring -->
  <circle cx="64" cy="61.5" r="32" fill="url(#innerShine)" stroke="#94A3B8" stroke-width="1.5"/>

  <!-- Safety Helmet Icon (Center-Left) -->
  <path d="M44 64C44 51.8 52.9 42 64 42C75.1 42 84 51.8 84 64H44Z" fill="#F59E0B" stroke="#B45309" stroke-width="1.5"/>
  <path d="M40 64H88C89.7 64 91 65.3 91 67V68H37V67C37 65.3 38.3 64 40 64Z" fill="#D97706"/>
  <rect x="61" y="42" width="6" height="22" rx="1" fill="#FCD34D"/>

  <!-- Metallic Verified Checkmark Badge (Bottom-Right) -->
  <circle cx="82" cy="80" r="14" fill="#0F172A" stroke="#64748B" stroke-width="2"/>
  <circle cx="82" cy="80" r="12" fill="#16A34A" stroke="#22C55E" stroke-width="1.5"/>
  <path d="M76.5 80L80 83.5L87.5 75.5" stroke="#FFFFFF" stroke-width="2.5" stroke-linecap="round" stroke-linejoin="round"/>
</svg>
